#N canvas 964 597 948 475.125 12;
#X obj 10 10 inlet;
#X obj 10 40 route liga desliga onda amplitude ataque decaimento vibrato
tremolo inicia finaliza, f 84;
#X obj 620 10 inlet~;
#X msg 20 70 1;
#X msg 50 70 0;
#X obj 20 100 switch~;
#X msg 10 130 DSP ligado;
#X obj 10 190 print;
#N canvas 644 560 1268 487.219 amplitude 0;
#X obj 10 10 inlet;
#X msg 20 40 amplitude: \$1;
#X obj 20 70 print;
#X obj 10 110 s amp;
#X connect 0 0 1 0;
#X connect 0 0 3 0;
#X connect 1 0 2 0;
#X restore 150 80 pd amplitude;
#X obj 620 40 s~ altura;
#N canvas 1250 560 662 487.125 saida 0;
#X floatatom 50 80 9 0 0 0 - amp -, f 9;
#X obj 10 110 *~;
#X obj 10 140 outlet~;
#X obj 10 50 *~;
#X obj 10 10 inlet~;
#X obj 70 10 inlet~;
#X connect 0 0 1 1;
#X connect 1 0 2 0;
#X connect 3 0 1 0;
#X connect 4 0 3 0;
#X connect 5 0 3 1;
#X restore 140 280 pd saida;
#X obj 140 310 outlet~;
#N canvas 644 560 1268 487.125 envelope 0;
#X obj 10 30 inlet;
#X msg 10 90 1;
#X obj 50 60 r ataque;
#X obj 10 230 line~;
#X obj 10 260 outlet~;
#X obj 50 90 t b f;
#X msg 10 150 \$1 \$2;
#X obj 10 120 pack f f;
#X obj 190 90 t b f;
#X msg 150 150 \$1 \$2;
#X obj 150 120 pack f f;
#X obj 190 60 r decaimento;
#X msg 150 90 0;
#X obj 150 30 inlet;
#X text 10 10 Ataque;
#X text 150 10 Decaimento;
#X connect 0 0 1 0;
#X connect 1 0 7 0;
#X connect 2 0 5 0;
#X connect 3 0 4 0;
#X connect 5 0 7 0;
#X connect 5 1 7 1;
#X connect 6 0 3 0;
#X connect 7 0 6 0;
#X connect 8 0 10 0;
#X connect 8 1 10 1;
#X connect 9 0 3 0;
#X connect 10 0 9 0;
#X connect 11 0 8 0;
#X connect 12 0 10 0;
#X connect 13 0 12 0;
#X restore 500 140 pd envelope;
#X msg 20 160 DSP desligado;
#N canvas 915 40 327 487.156 decaimento 0;
#X obj 10 10 inlet;
#X obj 16 60 print;
#X obj 10 85 s decaimento;
#X msg 16 35 decaimento: \$1 ms;
#X connect 0 0 3 0;
#X connect 0 0 2 0;
#X connect 3 0 1 0;
#X restore 280 110 pd decaimento;
#N canvas 1282 40 630 487.188 ataque 0;
#X obj 10 10 inlet;
#X obj 20 70 print;
#X obj 10 100 s ataque;
#X msg 20 40 ataque: \$1 ms;
#X connect 0 0 3 0;
#X connect 0 0 2 0;
#X connect 3 0 1 0;
#X restore 260 80 pd ataque;
#N canvas 1250 560 662 487.062 vibrato 0;
#X obj 10 10 inlet;
#X obj 10 100 osc~;
#X obj 10 230 *~;
#X obj 10 259 outlet~;
#X obj 70 130 t b f;
#X msg 70 160 2;
#X obj 70 190 pow;
#X floatatom 70 70 5 0 0 0 - - -, f 5;
#X floatatom 10 70 5 0 0 0 - - -, f 5;
#X obj 10 39 unpack f f;
#X floatatom 70 220 5 0 0 0 - - -, f 5;
#X obj 70 100 expr ($f1 * 100 / 1200);
#X connect 0 0 9 0;
#X connect 1 0 2 0;
#X connect 2 0 3 0;
#X connect 4 0 5 0;
#X connect 4 1 6 1;
#X connect 5 0 6 0;
#X connect 6 0 2 1;
#X connect 6 0 10 0;
#X connect 7 0 11 0;
#X connect 8 0 1 0;
#X connect 9 0 8 0;
#X connect 9 1 7 0;
#X connect 11 0 4 0;
#X restore 390 80 pd vibrato;
#N canvas 1442 597 470 450.094 tremolo 1;
#X obj 10 10 inlet;
#X obj 10 110 osc~;
#X obj 10 140 *~;
#X obj 10 219 outlet~;
#X floatatom 10 70 5 0 0 0 - - -, f 5;
#X obj 10 39 unpack f f;
#X obj 10 180 +~ 1;
#X floatatom 60 70 5 0 0 0 - - -, f 5;
#X connect 0 0 5 0;
#X connect 1 0 2 0;
#X connect 2 0 6 0;
#X connect 4 0 1 0;
#X connect 5 0 4 0;
#X connect 5 1 7 0;
#X connect 6 0 3 0;
#X connect 7 0 2 1;
#X restore 410 110 pd tremolo;
#N canvas 644 560 1268 487.062 seletor-de-onda 0;
#X obj 10 40 route senoidal quadrada triangular dente-de-serra;
#X obj 10 120 hradio 20 1 0 4 empty empty empty 0 -10 0 12 #fcfcfc
#000000 #000000 0;
#X obj 10 150 t f f b;
#X obj 10 190 f -1;
#X obj 10 220 route 0 1 2 3;
#X obj 10 10 inlet;
#X obj 10 250 tgl 20 0 empty empty empty 0 -10 0 12 #fcfcfc #000000
#000000 1 1;
#X obj 32 250 tgl 20 0 empty empty empty 0 -10 0 12 #fcfcfc #000000
#000000 0 1;
#X obj 54 250 tgl 20 0 empty empty empty 0 -10 0 12 #fcfcfc #000000
#000000 0 1;
#X obj 76 250 tgl 20 0 empty empty empty 0 -10 0 12 #fcfcfc #000000
#000000 0 1;
#X msg 10 70 0;
#X msg 95 70 1;
#X msg 180 70 2;
#X msg 265 70 3;
#X obj 10 290 outlet;
#X obj 60 290 outlet;
#X obj 110 290 outlet;
#X obj 160 290 outlet;
#X connect 0 0 10 0;
#X connect 0 1 11 0;
#X connect 0 2 12 0;
#X connect 0 3 13 0;
#X connect 1 0 2 0;
#X connect 2 0 3 1;
#X connect 2 1 3 0;
#X connect 2 2 3 0;
#X connect 3 0 4 0;
#X connect 4 0 6 0;
#X connect 4 1 7 0;
#X connect 4 2 8 0;
#X connect 4 3 9 0;
#X connect 5 0 0 0;
#X connect 6 0 14 0;
#X connect 7 0 15 0;
#X connect 8 0 16 0;
#X connect 9 0 17 0;
#X connect 10 0 1 0;
#X connect 11 0 1 0;
#X connect 12 0 1 0;
#X connect 13 0 1 0;
#X restore 140 120 pd seletor-de-onda;
#X f 8;
#N canvas 644 560 1268 487.094 gerador-de-onda 0;
#N canvas 1585 560 327 487.094 senoidal 0;
#X obj 60 80 osc~;
#X obj 10 10 inlet;
#X obj 10 120 *~;
#X obj 10 150 outlet~;
#X obj 60 10 inlet~;
#X obj 60 50 +~;
#X obj 120 10 inlet~;
#X connect 0 0 2 1;
#X connect 1 0 2 0;
#X connect 2 0 3 0;
#X connect 4 0 5 0;
#X connect 5 0 0 0;
#X connect 6 0 5 1;
#X restore 10 140 pd senoidal;
#N canvas 1585 560 327 487.094 quadrada 0;
#X obj 30 230 phasor~;
#X obj 30 260 -~ 0.5;
#X obj 30 290 *~ 2;
#X obj 90 230 phasor~;
#X obj 90 260 -~ 0.5;
#X obj 90 290 *~ 2;
#X obj 90 200 *~ -1;
#X msg 140 200 0.5;
#X msg 50 200 0;
#X obj 30 330 +~;
#X obj 10 10 inlet;
#X obj 10 370 *~, f 2;
#X obj 10 400 outlet~;
#X obj 120 140 loadbang;
#X obj 180 199 print;
#X msg 180 170 quadrada: loadbang;
#X obj 70 10 inlet~;
#X obj 140 10 inlet~;
#X obj 70 60 +~;
#X connect 0 0 1 0;
#X connect 1 0 2 0;
#X connect 2 0 9 0;
#X connect 3 0 4 0;
#X connect 4 0 5 0;
#X connect 5 0 9 1;
#X connect 6 0 3 0;
#X connect 7 0 3 1;
#X connect 8 0 0 1;
#X connect 9 0 11 1;
#X connect 10 0 11 0;
#X connect 11 0 12 0;
#X connect 13 0 7 0;
#X connect 13 0 8 0;
#X connect 13 0 15 0;
#X connect 15 0 14 0;
#X connect 16 0 18 0;
#X connect 17 0 18 1;
#X connect 18 0 6 0;
#X connect 18 0 0 0;
#X restore 20 170 pd quadrada;
#N canvas 1585 560 327 487.125 triangular 0;
#X obj 60 120 phasor~;
#X obj 60 150 -~ 0.5;
#X obj 60 180 *~ 2;
#X obj 140 120 phasor~;
#X obj 140 150 -~ 0.5;
#X obj 140 180 *~ 2;
#X obj 140 90 *~ -1;
#X msg 100 90 0;
#X obj 60 250 +~;
#X msg 190 90 0;
#X obj 60 210 clip~ 0 1;
#X obj 140 210 clip~ 0 1;
#X obj 10 10 inlet;
#X obj 10 300 *~;
#X obj 10 330 outlet~;
#X obj 140 50 loadbang;
#X obj 60 10 inlet~;
#X obj 120 10 inlet~;
#X obj 60 39 +~;
#X connect 0 0 1 0;
#X connect 1 0 2 0;
#X connect 2 0 10 0;
#X connect 3 0 4 0;
#X connect 4 0 5 0;
#X connect 5 0 11 0;
#X connect 6 0 3 0;
#X connect 7 0 0 1;
#X connect 8 0 13 1;
#X connect 9 0 3 1;
#X connect 10 0 8 0;
#X connect 11 0 8 1;
#X connect 12 0 13 0;
#X connect 13 0 14 0;
#X connect 15 0 7 0;
#X connect 15 0 9 0;
#X connect 16 0 18 0;
#X connect 17 0 18 1;
#X connect 18 0 6 0;
#X connect 18 0 0 0;
#X restore 30 200 pd triangular;
#N canvas 1585 560 327 487.094 dente-de-serra 0;
#X obj 10 10 inlet;
#X obj 10 170 *~;
#X obj 10 200 outlet~;
#X obj 60 10 inlet~;
#X obj 60 50 +~;
#X obj 120 10 inlet~;
#X obj 60 80 phasor~;
#X obj 60 109 -~ 0.5;
#X obj 60 138 *~ 2;
#X connect 0 0 1 0;
#X connect 1 0 2 0;
#X connect 3 0 4 0;
#X connect 4 0 6 0;
#X connect 5 0 4 1;
#X connect 6 0 7 0;
#X connect 7 0 8 0;
#X connect 8 0 1 1;
#X restore 40 230 pd dente-de-serra;
#X msg 180 230 onda: senoidal;
#X obj 290 270 print;
#X msg 190 200 onda: quadrada;
#X msg 200 170 onda: triangular;
#X msg 210 140 onda: dente-de-serra;
#X obj 210 30 inlet~;
#X obj 10 30 inlet;
#X obj 50 30 inlet;
#X obj 90 30 inlet;
#X obj 130 30 inlet;
#X obj 10 70 tgl 20 0 empty empty empty 0 -10 0 12 #fcfcfc #000000
#000000 1 1;
#X obj 30 70 tgl 20 0 empty empty empty 0 -10 0 12 #fcfcfc #000000
#000000 0 1;
#X obj 50 70 tgl 20 0 empty empty empty 0 -10 0 12 #fcfcfc #000000
#000000 0 1;
#X obj 70 70 tgl 20 0 empty empty empty 0 -10 0 12 #fcfcfc #000000
#000000 0 1;
#X obj 10 270 outlet~;
#X obj 360 30 r~ altura;
#X text 210 10 Sinal do vibrato;
#X text 10 10 Seletor de onda;
#X text 360 10 Sinal da altura;
#X connect 0 0 18 0;
#X connect 1 0 18 0;
#X connect 2 0 18 0;
#X connect 3 0 18 0;
#X connect 4 0 5 0;
#X connect 6 0 5 0;
#X connect 7 0 5 0;
#X connect 8 0 5 0;
#X connect 9 0 0 1;
#X connect 9 0 1 1;
#X connect 9 0 2 1;
#X connect 9 0 3 1;
#X connect 10 0 14 0;
#X connect 11 0 15 0;
#X connect 12 0 16 0;
#X connect 13 0 17 0;
#X connect 14 0 0 0;
#X connect 14 0 4 0;
#X connect 15 0 1 0;
#X connect 15 0 6 0;
#X connect 16 0 2 0;
#X connect 16 0 7 0;
#X connect 17 0 8 0;
#X connect 17 0 3 0;
#X connect 19 0 0 2;
#X connect 19 0 1 2;
#X connect 19 0 2 2;
#X connect 19 0 3 2;
#X restore 140 190 pd gerador-de-onda;
#X f 8;
#X obj 140 250 *~;
#X connect 0 0 1 0;
#X connect 1 0 3 0;
#X connect 1 0 6 0;
#X connect 1 1 13 0;
#X connect 1 1 4 0;
#X connect 1 2 18 0;
#X connect 1 3 8 0;
#X connect 1 4 15 0;
#X connect 1 5 14 0;
#X connect 1 6 16 0;
#X connect 1 7 17 0;
#X connect 1 8 12 0;
#X connect 1 9 12 1;
#X connect 2 0 9 0;
#X connect 3 0 5 0;
#X connect 4 0 5 0;
#X connect 6 0 7 0;
#X connect 10 0 11 0;
#X connect 12 0 10 1;
#X connect 13 0 7 0;
#X connect 16 0 19 4;
#X connect 17 0 20 1;
#X connect 18 0 19 0;
#X connect 18 1 19 1;
#X connect 18 2 19 2;
#X connect 18 3 19 3;
#X connect 19 0 20 0;
#X connect 20 0 10 0;
