#N canvas 634 32 630 480 12;
#X declare -lib zexy;
#X obj 2 2 inlet;
#X obj 2 27 route liga desliga onda amplitude ataque decaimento vibrato tremolo inicia finaliza;
#X msg 2 66 1;
#X msg 43 66 0;
#X obj 2 91 switch~;
#X floatatom 45 153 5 0 0 0 - amp_\$0 - 0;
#X obj 45 178 *~, f 6;
#X obj 45 203 outlet~;
#X obj 425 2 inlet~;
#X obj 807 2 declare -lib zexy;
#N canvas 1272 32 630 480 seletor-de-onda 1;
#X obj 2 28 route senoidal quadrada triangular dente-de-serra;
#N canvas 634 552 630 480 senoidal 0;
#X obj 2 27 osc~;
#X obj 20 52 inlet;
#X obj 2 127 *~;
#X obj 2 2 r~ altura_\$0;
#X obj 2 152 outlet~;
#X msg 20 77 \$1 100;
#X obj 20 102 line~;
#X connect 0 0 2 0;
#X connect 1 0 5 0;
#X connect 2 0 4 0;
#X connect 3 0 0 0;
#X connect 5 0 6 0;
#X connect 6 0 2 1;
#X restore 2 234 pd senoidal;
#X obj 2 98 hradio 20 1 0 4 empty empty empty 0 -10 0 12 #fcfcfc #000000 #000000 0;
#X obj 2 123 t f f b;
#X obj 2 158 f -1;
#X obj 2 183 route 0 1 2 3;
#N canvas 1272 552 630 480 quadrada 1;
#X obj 2 87 phasor~;
#X obj 2 112 -~ 0.5;
#X obj 2 137 *~ 2;
#X obj 83 87 phasor~;
#X obj 83 112 -~ 0.5;
#X obj 83 137 *~ 2;
#X obj 83 62 *~ -1;
#X msg 129 62 0.5;
#X msg 48 62 0;
#X obj 2 162 +~;
#X obj 2 2 r~ altura_\$0;
#X obj 20 187 inlet;
#X obj 2 262 *~;
#X obj 2 287 outlet~;
#X msg 20 212 \$1 100;
#X obj 20 237 line~;
#X connect 0 0 1 0;
#X connect 1 0 2 0;
#X connect 2 0 9 0;
#X connect 3 0 4 0;
#X connect 4 0 5 0;
#X connect 5 0 9 1;
#X connect 6 0 3 0;
#X connect 7 0 3 1;
#X connect 8 0 0 1;
#X connect 9 0 12 0;
#X connect 10 0 0 0;
#X connect 10 0 6 0;
#X connect 11 0 14 0;
#X connect 12 0 13 0;
#X connect 14 0 15 0;
#X connect 15 0 12 1;
#X restore 24 259 pd quadrada;
#X obj 2 2 inlet;
#X obj 2 344 outlet~;
#X obj 2 208 tgl 20 0 empty empty empty 0 -10 0 12 #fcfcfc #000000 #000000 0 1;
#X obj 24 208 tgl 20 0 empty empty empty 0 -10 0 12 #fcfcfc #000000 #000000 0 1;
#X obj 46 208 tgl 20 0 empty empty empty 0 -10 0 12 #fcfcfc #000000 #000000 0 1;
#X obj 68 208 tgl 20 0 empty empty empty 0 -10 0 12 #fcfcfc #000000 #000000 0 1;
#N canvas 634 552 630 480 triangular 1;
#X obj 2 87 phasor~;
#X obj 2 112 -~ 0.5;
#X obj 2 137 *~ 2;
#X obj 83 87 phasor~;
#X obj 83 112 -~ 0.5;
#X obj 83 137 *~ 2;
#X obj 83 62 *~ -1;
#X msg 48 62 0;
#X obj 2 187 +~;
#X obj 2 2 r~ altura_\$0;
#X obj 20 212 inlet;
#X obj 2 287 *~;
#X obj 2 312 outlet~;
#X msg 20 237 \$1 100;
#X obj 20 262 line~;
#X msg 129 62 0;
#X obj 2 162 clip~ 0 1;
#X obj 83 162 clip~ 0 1;
#X connect 0 0 1 0;
#X connect 1 0 2 0;
#X connect 2 0 16 0;
#X connect 3 0 4 0;
#X connect 4 0 5 0;
#X connect 5 0 17 0;
#X connect 6 0 3 0;
#X connect 7 0 0 1;
#X connect 8 0 11 0;
#X connect 9 0 0 0;
#X connect 9 0 6 0;
#X connect 10 0 13 0;
#X connect 11 0 12 0;
#X connect 13 0 14 0;
#X connect 14 0 11 1;
#X connect 15 0 3 1;
#X connect 16 0 8 0;
#X connect 17 0 8 1;
#X restore 46 284 pd triangular;
#N canvas 1591 32 311 450 dente-de-serra 0;
#X obj 61 27 inlet;
#X obj 2 102 *~;
#X obj 2 2 r~ altura_\$0;
#X obj 2 127 outlet~;
#X msg 61 52 \$1 100;
#X obj 61 77 line~;
#X obj 2 27 phasor~;
#X obj 2 52 -~ 0.5;
#X obj 2 77 *~ 2;
#X connect 0 0 4 0;
#X connect 1 0 3 0;
#X connect 2 0 6 0;
#X connect 4 0 5 0;
#X connect 5 0 1 1;
#X connect 6 0 7 0;
#X connect 7 0 8 0;
#X connect 8 0 1 0;
#X restore 69 309 pd dente-de-serra;
#X msg 2 53 0;
#X msg 87 53 1;
#X msg 172 53 2;
#X msg 257 53 3;
#X connect 0 0 15 0;
#X connect 0 1 16 0;
#X connect 0 2 17 0;
#X connect 0 3 18 0;
#X connect 1 0 8 0;
#X connect 2 0 3 0;
#X connect 3 0 4 1;
#X connect 3 1 4 0;
#X connect 3 2 4 0;
#X connect 4 0 5 0;
#X connect 5 0 9 0;
#X connect 5 1 10 0;
#X connect 5 2 11 0;
#X connect 5 3 12 0;
#X connect 6 0 8 0;
#X connect 7 0 0 0;
#X connect 9 0 1 0;
#X connect 10 0 6 0;
#X connect 11 0 13 0;
#X connect 12 0 14 0;
#X connect 13 0 8 0;
#X connect 14 0 8 0;
#X connect 15 0 2 0;
#X connect 16 0 2 0;
#X connect 17 0 2 0;
#X connect 18 0 2 0;
#X restore 84 90 pd seletor-de-onda;
#X obj 125 66 s amp_\$0;
#X obj 425 27 s~ altura_\$0;
#X connect 0 0 1 0;
#X connect 1 0 2 0;
#X connect 1 1 3 0;
#X connect 1 2 10 0;
#X connect 1 3 11 0;
#X connect 2 0 4 0;
#X connect 3 0 4 0;
#X connect 5 0 6 0;
#X connect 6 0 7 0;
#X connect 8 0 12 0;
#X connect 10 0 6 1;
