#N canvas 952 28 954 1008 12;
#X obj 2 2 inlet;
#X obj 436 2 inlet;
#X obj 2 27 route liga desliga onda amplitude ataque decaimento vibrato tremolo inicia finaliza;
#X obj 192 137 print;
#X obj 84 167 osc~;
#X obj 84 192 dac~;
#X floatatom 84 143 5 0 0 0 - - - 0;
#X msg 2 66 1;
#X msg 43 66 0;
#X obj 2 91 switch~;
#X obj 84 66 route senoidal quadrada triangular dente-de-serra;
#X connect 0 0 2 0;
#X connect 2 0 7 0;
#X connect 2 1 8 0;
#X connect 2 2 10 0;
#X connect 4 0 5 0;
#X connect 4 0 5 1;
#X connect 6 0 4 0;
#X connect 7 0 9 0;
#X connect 8 0 9 0;
#X connect 10 0 3 0;
