#N canvas 954 32 948 1000 12;
#X declare -lib zexy;
#X obj 2 2 inlet;
#X obj 2 27 route liga desliga onda amplitude ataque decaimento vibrato tremolo inicia finaliza, f 88;
#X floatatom 142 181 9 0 0 0 - amp - 0;
#X obj 124 206 *~;
#X obj 124 231 outlet~;
#X obj 2 208 inlet~;
#X obj 499 2 declare -lib zexy;
#N canvas 1272 32 311 450 seletor-de-onda 0;
#X obj 2 27 route senoidal quadrada triangular dente-de-serra;
#N canvas 1272 552 630 480 senoidal 0;
#X obj 2 27 osc~;
#X obj 20 52 inlet;
#X obj 2 127 *~;
#X obj 2 2 r~ altura_\$0;
#X obj 2 152 outlet~;
#X msg 20 77 \$1 100;
#X obj 20 102 line~;
#X connect 0 0 2 0;
#X connect 1 0 5 0;
#X connect 2 0 4 0;
#X connect 3 0 0 0;
#X connect 5 0 6 0;
#X connect 6 0 2 1;
#X restore 2 380 pd senoidal;
#X obj 2 131 hradio 20 1 0 4 empty empty empty 0 -10 0 12 #fcfcfc #000000 #000000 0;
#X obj 2 156 t f f b;
#X obj 2 191 f -1;
#X obj 2 216 route 0 1 2 3;
#N canvas 1272 552 630 480 quadrada 0;
#X obj 2 87 phasor~;
#X obj 2 112 -~ 0.5;
#X obj 2 137 *~ 2;
#X obj 83 87 phasor~;
#X obj 83 112 -~ 0.5;
#X obj 83 137 *~ 2;
#X obj 83 62 *~ -1;
#X msg 129 62 0.5;
#X msg 48 62 0;
#X obj 2 162 +~;
#X obj 2 2 r~ altura_\$0;
#X obj 20 187 inlet;
#X obj 2 262 *~;
#X obj 2 287 outlet~;
#X msg 20 212 \$1 100;
#X obj 20 237 line~;
#X connect 0 0 1 0;
#X connect 1 0 2 0;
#X connect 2 0 9 0;
#X connect 3 0 4 0;
#X connect 4 0 5 0;
#X connect 5 0 9 1;
#X connect 6 0 3 0;
#X connect 7 0 3 1;
#X connect 8 0 0 1;
#X connect 9 0 12 0;
#X connect 10 0 0 0;
#X connect 10 0 6 0;
#X connect 11 0 14 0;
#X connect 12 0 13 0;
#X connect 14 0 15 0;
#X connect 15 0 12 1;
#X restore 86 380 pd quadrada;
#X obj 2 2 inlet;
#X obj 2 486 outlet~;
#X obj 2 241 tgl 20 0 empty empty empty 0 -10 0 12 #fcfcfc #000000 #000000 0 1;
#X obj 24 241 tgl 20 0 empty empty empty 0 -10 0 12 #fcfcfc #000000 #000000 0 1;
#X obj 46 241 tgl 20 0 empty empty empty 0 -10 0 12 #fcfcfc #000000 #000000 0 1;
#X obj 68 241 tgl 20 0 empty empty empty 0 -10 0 12 #fcfcfc #000000 #000000 0 1;
#N canvas 634 552 630 480 triangular 0;
#X obj 2 87 phasor~;
#X obj 2 112 -~ 0.5;
#X obj 2 137 *~ 2;
#X obj 83 87 phasor~;
#X obj 83 112 -~ 0.5;
#X obj 83 137 *~ 2;
#X obj 83 62 *~ -1;
#X msg 48 62 0;
#X obj 2 187 +~;
#X obj 2 2 r~ altura_\$0;
#X obj 20 212 inlet;
#X obj 2 287 *~;
#X obj 2 312 outlet~;
#X msg 20 237 \$1 100;
#X obj 20 262 line~;
#X msg 129 62 0;
#X obj 2 162 clip~ 0 1;
#X obj 83 162 clip~ 0 1;
#X connect 0 0 1 0;
#X connect 1 0 2 0;
#X connect 2 0 16 0;
#X connect 3 0 4 0;
#X connect 4 0 5 0;
#X connect 5 0 17 0;
#X connect 6 0 3 0;
#X connect 7 0 0 1;
#X connect 8 0 11 0;
#X connect 9 0 0 0;
#X connect 9 0 6 0;
#X connect 10 0 13 0;
#X connect 11 0 12 0;
#X connect 13 0 14 0;
#X connect 14 0 11 1;
#X connect 15 0 3 1;
#X connect 16 0 8 0;
#X connect 17 0 8 1;
#X restore 174 381 pd triangular;
#N canvas 1591 32 311 450 dente-de-serra 0;
#X obj 61 27 inlet;
#X obj 2 102 *~;
#X obj 2 2 r~ altura_\$0;
#X obj 2 127 outlet~;
#X msg 61 52 \$1 100;
#X obj 61 77 line~;
#X obj 2 27 phasor~;
#X obj 2 52 -~ 0.5;
#X obj 2 77 *~ 2;
#X connect 0 0 4 0;
#X connect 1 0 3 0;
#X connect 2 0 6 0;
#X connect 4 0 5 0;
#X connect 5 0 1 1;
#X connect 6 0 7 0;
#X connect 7 0 8 0;
#X connect 8 0 1 0;
#X restore 277 381 pd dente-de-serra;
#X msg 2 52 0;
#X msg 87 52 1;
#X msg 172 52 2;
#X msg 257 52 3;
#X msg 28 303 onda: senoidal;
#X obj 303 341 print;
#X msg 138 303 onda: quadrada;
#X msg 249 303 onda: triangular;
#X msg 375 303 onda: dente-de-serra;
#X connect 0 0 15 0;
#X connect 0 1 16 0;
#X connect 0 2 17 0;
#X connect 0 3 18 0;
#X connect 1 0 8 0;
#X connect 2 0 3 0;
#X connect 3 0 4 1;
#X connect 3 1 4 0;
#X connect 3 2 4 0;
#X connect 4 0 5 0;
#X connect 5 0 9 0;
#X connect 5 1 10 0;
#X connect 5 2 11 0;
#X connect 5 3 12 0;
#X connect 6 0 8 0;
#X connect 7 0 0 0;
#X connect 9 0 1 0;
#X connect 9 0 19 0;
#X connect 10 0 6 0;
#X connect 10 0 21 0;
#X connect 11 0 13 0;
#X connect 11 0 22 0;
#X connect 12 0 14 0;
#X connect 12 0 23 0;
#X connect 13 0 8 0;
#X connect 14 0 8 0;
#X connect 15 0 2 0;
#X connect 16 0 2 0;
#X connect 17 0 2 0;
#X connect 18 0 2 0;
#X connect 19 0 20 0;
#X connect 21 0 20 0;
#X connect 22 0 20 0;
#X connect 23 0 20 0;
#X restore 124 52 pd seletor-de-onda;
#X f 5;
#X obj 2 233 s~ altura_\$0;
#X msg 10 57 1;
#X msg 45 57 0;
#X obj 10 82 switch~;
#X msg 2 107 DSP ligado;
#X obj 2 157 print;
#X msg 8 132 DSP desligado;
#N canvas 634 552 630 480 inicia 0;
#X obj 13 16 inlet;
#X obj 13 198 outlet~;
#X msg 13 41 1;
#X obj 60 41 r ataque;
#X obj 13 66 pack;
#X connect 0 0 2 0;
#X connect 2 0 4 0;
#X connect 3 0 4 1;
#X restore 492 52 pd inicia;
#X f 7;
#N canvas 1272 32 630 480 ataque 0;
#X obj 10 10 inlet;
#X msg 16 35 ataque: \$1;
#X obj 16 60 print;
#X obj 10 85 s ataque;
#X connect 0 0 1 0;
#X connect 0 0 3 0;
#X connect 1 0 2 0;
#X restore 247 52 pd ataque;
#X obj 124 156 *~;
#N canvas 634 552 1268 480 amplitude 0;
#X obj 7 5 inlet;
#X msg 14 30 amplitude: \$1;
#X obj 14 55 print;
#X obj 7 80 s amp;
#X connect 0 0 1 0;
#X connect 0 0 3 0;
#X connect 1 0 2 0;
#X restore 185 77 pd amplitude;
#X connect 0 0 1 0;
#X connect 1 0 9 0;
#X connect 1 0 12 0;
#X connect 1 1 10 0;
#X connect 1 1 14 0;
#X connect 1 2 7 0;
#X connect 1 3 18 0;
#X connect 1 4 16 0;
#X connect 1 8 15 0;
#X connect 2 0 3 1;
#X connect 3 0 4 0;
#X connect 5 0 8 0;
#X connect 7 0 17 0;
#X connect 9 0 11 0;
#X connect 10 0 11 0;
#X connect 12 0 13 0;
#X connect 14 0 13 0;
#X connect 17 0 3 0;
