#N canvas -2 32 1904 1000 12;
#X msg 11 11 liga;
#X obj 31 336 sintetizador~;
#X obj 294 327 keyup;
#X msg 294 352 finaliza;
#X msg 294 277 inicia;
#X msg 17 36 desliga;
#X msg 146 35 onda quadrada;
#X msg 152 60 onda triangular;
#X msg 156 85 onda dente-de-serra;
#X obj 31 387 dac~;
#X msg 139 10 onda senoidal;
#X obj 329 24 hsl 88 20 0.01 1 1 1 empty empty Amplitude\ (logarítmica) -2 -10 0 12 #ffffff #000000 #000000 8700 1;
#X msg 326 49 amplitude \$1;
#N canvas 954 32 948 1000 teclado 0;
#X obj 4 4 key;
#X obj 4 29 t b f;
#X obj 36 59 - 49;
#X obj 36 84 mtof;
#X obj 36 109 sig~;
#X obj 4 159 outlet;
#X obj 36 134 outlet~;
#X obj 74 84 print;
#X msg 74 59 midi: \$1;
#X connect 0 0 1 0;
#X connect 1 0 5 0;
#X connect 1 1 2 0;
#X connect 1 1 8 0;
#X connect 2 0 3 0;
#X connect 3 0 4 0;
#X connect 4 0 6 0;
#X connect 8 0 7 0;
#X restore 294 252 pd teclado;
#X floatatom 327 117 5 0 0 0 - - - 0;
#X msg 327 141 ataque \$1;
#X obj 11 61 s sint_inl_mes_\$0;
#X obj 139 110 s sint_inl_mes_\$0;
#X obj 326 74 s sint_inl_mes_\$0;
#X obj 327 166 s sint_inl_mes_\$0;
#X obj 294 377 s sint_inl_mes_\$0;
#X obj 119 311 r sint_inl_mes_\$0;
#X obj 31 286 r~ sint_inl_sig_\$0;
#X obj 361 277 s~ sint_inl_sig_\$0;
#X obj 294 302 s sint_inl_mes_\$0;
#X connect 0 0 16 0;
#X connect 1 0 9 0;
#X connect 1 0 9 1;
#X connect 2 0 3 0;
#X connect 3 0 20 0;
#X connect 4 0 24 0;
#X connect 5 0 16 0;
#X connect 6 0 17 0;
#X connect 7 0 17 0;
#X connect 8 0 17 0;
#X connect 10 0 17 0;
#X connect 11 0 12 0;
#X connect 12 0 18 0;
#X connect 13 0 4 0;
#X connect 13 1 23 0;
#X connect 14 0 15 0;
#X connect 15 0 19 0;
#X connect 21 0 1 1;
#X connect 22 0 1 0;
