#N canvas 954 32 948 480 12;
#X msg 2 27 liga;
#X obj 2 192 sintetizador~;
#X obj 317 2 keyup;
#X msg 317 27 finaliza;
#X obj 387 2 key;
#X obj 387 27 t b f;
#X msg 387 52 inicia;
#X obj 443 52 - 49;
#X obj 443 77 mtof;
#X obj 443 102 sig~;
#X msg 44 27 desliga;
#X msg 107 27 onda quadrada;
#X msg 107 52 onda triangular;
#X msg 107 77 onda dente-de-serra;
#X obj 2 217 dac~;
#X msg 212 2 amplitude 0.5;
#X msg 107 2 onda senoidal;
#X connect 0 0 1 0;
#X connect 1 0 14 0;
#X connect 2 0 3 0;
#X connect 3 0 1 0;
#X connect 4 0 5 0;
#X connect 5 0 6 0;
#X connect 5 1 7 0;
#X connect 6 0 1 0;
#X connect 7 0 8 0;
#X connect 8 0 9 0;
#X connect 9 0 1 1;
#X connect 10 0 1 0;
#X connect 11 0 1 0;
#X connect 12 0 1 0;
#X connect 13 0 1 0;
#X connect 15 0 1 0;
#X connect 16 0 1 0;
